<?xml version="1.0" standalone="no"?>
<!DOCTYPE svg PUBLIC "-//W3C//DTD SVG 20010904//EN"
 "http://www.w3.org/TR/2001/REC-SVG-20010904/DTD/svg10.dtd">
<svg version="1.0" xmlns="http://www.w3.org/2000/svg"
 width="184.000000pt" height="94.000000pt" viewBox="0 0 184.000000 94.000000"
 preserveAspectRatio="xMidYMid meet">

<g transform="translate(0.000000,94.000000) scale(0.100000,-0.100000)"
fill="#000000" stroke="none">
<path d="M471 434 c-34 -43 -23 -79 37 -129 25 -21 32 -34 30 -54 -4 -31 -19
-32 -33 -2 -14 31 -51 24 -47 -9 5 -54 82 -80 122 -40 34 34 26 75 -26 130
-44 47 -54 78 -27 87 6 2 14 -5 18 -17 9 -27 39 -22 43 6 8 55 -80 75 -117 28z"/>
<path d="M632 339 c3 -113 5 -122 27 -140 31 -25 85 -25 111 1 18 18 20 33 20
140 l0 120 -25 0 -25 0 0 -107 c0 -113 -7 -140 -34 -130 -13 5 -16 25 -16 122
l0 115 -31 0 -31 0 4 -121z"/>
<path d="M840 320 c0 -133 1 -140 20 -140 18 0 20 7 20 72 0 39 3 68 7 64 4
-4 19 -35 33 -69 15 -35 34 -63 43 -65 15 -3 17 12 17 137 0 134 -1 141 -20
141 -18 0 -20 -7 -20 -60 0 -33 -3 -60 -7 -60 -5 0 -19 27 -33 60 -17 41 -31
60 -42 60 -16 0 -18 -13 -18 -140z"/>
<path d="M1046 444 c-40 -39 -29 -88 31 -138 26 -21 33 -35 31 -55 -4 -31 -19
-32 -33 -2 -6 13 -19 21 -33 21 -21 0 -23 -3 -18 -27 14 -59 82 -82 124 -43
36 34 29 74 -23 129 -44 47 -59 91 -31 91 7 0 16 -9 19 -21 7 -25 40 -22 45 4
9 46 -76 77 -112 41z"/>
<path d="M1210 320 l0 -140 25 0 c23 0 24 4 27 63 3 54 5 62 23 62 18 0 20 -8
23 -63 3 -62 3 -63 30 -60 l27 3 3 138 3 137 -31 0 c-30 0 -30 0 -30 -55 0
-52 -1 -55 -25 -55 -24 0 -25 3 -25 55 0 52 -1 55 -25 55 l-25 0 0 -140z"/>
<path d="M1412 323 l3 -138 28 -3 27 -3 0 140 0 141 -30 0 -31 0 3 -137z"/>
<path d="M1520 320 c0 -133 1 -140 20 -140 18 0 20 7 20 72 0 39 3 68 8 64 4
-4 18 -35 32 -69 15 -38 32 -63 43 -65 15 -3 17 9 17 137 0 134 -1 141 -20
141 -18 0 -20 -7 -20 -67 0 -75 -7 -74 -40 10 -17 40 -29 57 -42 57 -17 0 -18
-11 -18 -140z"/>
<path d="M1710 320 l0 -140 60 0 c53 0 60 2 60 19 0 15 -8 21 -32 23 -31 3
-33 5 -33 43 0 34 3 40 23 43 14 2 22 10 22 22 0 12 -8 20 -22 22 -18 2 -23
10 -23 33 0 27 4 30 33 33 24 2 32 8 32 23 0 17 -7 19 -60 19 l-60 0 0 -140z"/>
<path d="M520 111 c0 -17 2 -31 4 -31 8 0 13 51 5 56 -5 3 -9 -9 -9 -25z"/>
<path d="M650 117 c0 -14 4 -28 8 -31 9 -5 8 41 -1 51 -4 3 -7 -5 -7 -20z"/>
<path d="M568 123 c7 -3 16 -2 19 1 4 3 -2 6 -13 5 -11 0 -14 -3 -6 -6z"/>
<path d="M612 105 c0 -16 2 -22 5 -12 2 9 2 23 0 30 -3 6 -5 -1 -5 -18z"/>
<path d="M752 93 l1 -38 4 33 c3 25 8 32 19 28 9 -3 12 -1 9 4 -3 6 -13 10
-21 10 -10 0 -14 -11 -12 -37z"/>
<path d="M904 115 c-3 -8 -4 -20 -1 -27 3 -7 6 -2 6 11 1 17 5 21 17 17 8 -3
12 -2 9 4 -9 15 -25 12 -31 -5z"/>
<path d="M962 105 c0 -16 2 -22 5 -12 2 9 2 23 0 30 -3 6 -5 -1 -5 -18z"/>
<path d="M988 103 c5 -21 7 -23 10 -9 2 10 0 22 -6 28 -6 6 -7 0 -4 -19z"/>
<path d="M1018 103 c5 -21 7 -23 10 -9 2 10 0 22 -6 28 -6 6 -7 0 -4 -19z"/>
<path d="M1078 103 c5 -21 7 -23 10 -9 2 10 0 22 -6 28 -6 6 -7 0 -4 -19z"/>
<path d="M692 100 c0 -14 2 -19 5 -12 2 6 2 18 0 25 -3 6 -5 1 -5 -13z"/>
<path d="M722 100 c0 -14 2 -19 5 -12 2 6 2 18 0 25 -3 6 -5 1 -5 -13z"/>
<path d="M1162 100 c0 -14 2 -19 5 -12 2 6 2 18 0 25 -3 6 -5 1 -5 -13z"/>
<path d="M486 95 c-3 -8 -1 -15 4 -15 6 0 10 7 10 15 0 8 -2 15 -4 15 -2 0 -6
-7 -10 -15z"/>
<path d="M555 99 c-4 -6 -4 -13 -1 -16 3 -4 6 -1 6 5 0 6 8 13 18 15 15 4 15
5 0 6 -9 0 -20 -4 -23 -10z"/>
<path d="M1118 103 c7 -3 16 -2 19 1 4 3 -2 6 -13 5 -11 0 -14 -3 -6 -6z"/>
<path d="M1235 90 c3 -5 8 -10 11 -10 2 0 4 5 4 10 0 6 -5 10 -11 10 -5 0 -7
-4 -4 -10z"/>
</g>
</svg>
